<svg xmlns="http://www.w3.org/2000/svg"  viewBox="0 0 50 50" width="50px" height="50px"><path d="M8 31c-.131 0-.263-.025-.388-.078C7.241 30.766 7 30.402 7 30V18c0-.27.108-.527.302-.716l12.281-11.98c2.063-2.011 5.396-1.988 7.431.046 1.008 1.008 1.558 2.347 1.549 3.771-.009 1.424-.574 2.756-1.594 3.751L8.698 30.716C8.508 30.901 8.256 31 8 31zM25.726 45.993c-1.357 0-2.713-.515-3.739-1.542-1.007-1.007-1.558-2.347-1.549-3.771s.574-2.757 1.594-3.752l18.271-17.844c.288-.28.716-.362 1.086-.206C41.759 19.035 42 19.398 42 19.801v12c0 .27-.108.527-.302.716l-12.281 11.98C28.396 45.495 27.06 45.993 25.726 45.993zM23 33H12c-.404 0-.77-.243-.924-.617-.155-.374-.069-.804.217-1.09l15-15C26.48 16.105 26.734 16 27 16h11c.404 0 .77.243.924.617.155.374.069.804-.217 1.09l-15 15C23.52 32.895 23.266 33 23 33z"/></svg>